# xmcd
#
# Track frame offsets: 
#        150
#        36699
#        59798
#        90059
#
# Disc length: 1614 seconds
#
# Revision: 0
# Processed by: cddbd v1.5.2PL0 Copyright (c) Steve Scherf et al.
# Submitted via: ExactAudioCopy v1.0b1
#
DISCID=31064c04
DTITLE=Jesu - Ascension (Bonus Disc)
DYEAR=2011
DGENRE=Sludge Metal
TTITLE0=Fools (Alternative Version)
TTITLE1=Birth Day (Alternative Version)
TTITLE2=King Of Kings (Alternative Version)
TTITLE3=King Of Pride
EXTD=
EXTT0=
EXTT1=
EXTT2=
EXTT3=
PLAYORDER=
